<svg xmlns="http://www.w3.org/2000/svg" viewBox="0 0 1431 1296" width="1431" height="1296" role="img" font-family="'SF Mono', 'JetBrains Mono', 'Menlo', 'DejaVu Sans Mono', 'Consolas', monospace">
<defs>
  <marker id="arr" markerWidth="8.5" markerHeight="8" refX="6" refY="3" orient="auto" markerUnits="userSpaceOnUse"><path d="M0,0 L6,3 L0,6 Z" fill="#9aa09c"/></marker>
  <style>@media (prefers-reduced-motion: reduce){ .flow{ display:none; } }</style>
</defs>
<rect x="0" y="0" width="1431" height="1296" fill="#F8F8F1"/>
<g></g>
<g><path d="M 867.65 102 L 867.65 134 Q 867.65 144 867.65 154 L 867.65 186" fill="none" stroke="#B4B6B2" stroke-width="1" marker-end="url(#arr)"/><path d="M 708.65 244.35 L 919.74 286.06 Q 929.55 288 921.24 293.56 L 866.7 330" fill="none" stroke="#B4B6B2" stroke-width="1" marker-end="url(#arr)"/><path d="M 534.11 246 L 497.84 281.05 Q 490.65 288 482.78 294.17 L 437.07 330" fill="none" stroke="#B4B6B2" stroke-width="1" marker-end="url(#arr)"/><path d="M 994.65 239.83 L 1241.47 286.16 Q 1251.3 288 1251.3 298 L 1251.3 350 Q 1251.3 360 1251.3 370 L 1251.3 422 Q 1251.3 432 1251.3 442 L 1251.3 494 Q 1251.3 504 1251.3 514 L 1251.3 566 Q 1251.3 576 1251.3 586 L 1251.3 638 Q 1251.3 648 1251.3 658 L 1251.3 710 Q 1251.3 720 1251.3 730 L 1251.3 762" fill="none" stroke="#B4B6B2" stroke-width="1" marker-end="url(#arr)"/><path d="M 947.13 246 L 1049.04 284.47 Q 1058.4 288 1058.4 298 L 1058.4 350 Q 1058.4 360 1058.4 370 L 1058.4 422 Q 1058.4 432 1058.4 442 L 1058.4 494 Q 1058.4 504 1058.4 514 L 1058.4 566 Q 1058.4 576 1048.83 578.9 L 919.8 618" fill="none" stroke="#B4B6B2" stroke-width="1" marker-end="url(#arr)"/><path d="M 791.75 246 L 694.8 284.32 Q 685.5 288 694.34 292.67 L 765.01 330" fill="none" stroke="#B4B6B2" stroke-width="1" marker-end="url(#arr)"/><path d="M 740.65 232.77 L 332.26 286.69 Q 322.35 288 329.63 294.86 L 366.95 330" fill="none" stroke="#B4B6B2" stroke-width="1" marker-end="url(#arr)"/><path d="M 770.18 390 L 706.55 426.98 Q 697.9 432 688.3 434.78 L 552.97 474" fill="none" stroke="#B4B6B2" stroke-width="1" marker-end="url(#arr)"/><path d="M 841.65 390 L 863.93 423.66 Q 869.45 432 869.45 442 L 869.45 494 Q 869.45 504 869.45 514 L 869.45 566 Q 869.45 576 863.85 584.29 L 841.07 618" fill="none" stroke="#B4B6B2" stroke-width="1" marker-end="url(#arr)"/><path d="M 398.8 390 L 398.8 422 Q 398.8 432 404.55 440.18 L 428.35 474" fill="none" stroke="#B4B6B2" stroke-width="1" marker-end="url(#arr)"/><path d="M 547.14 534 L 674.34 573.06 Q 683.9 576 692.75 580.65 L 763.76 618" fill="none" stroke="#B4B6B2" stroke-width="1" marker-end="url(#arr)"/><path d="M 1251.3 822 L 1251.3 854 Q 1251.3 864 1243.54 870.31 L 1199.7 906" fill="none" stroke="#B4B6B2" stroke-width="1" marker-end="url(#arr)"/><path d="M 1162.85 966 L 1162.85 998 Q 1162.85 1008 1153.22 1010.7 L 1013.17 1050" fill="none" stroke="#B4B6B2" stroke-width="1" marker-end="url(#arr)"/><path d="M 906.25 1110 L 906.25 1142 Q 906.25 1152 906.25 1162 L 906.25 1194" fill="none" stroke="#B4B6B2" stroke-width="1" marker-end="url(#arr)"/><path d="M 820.8 678 L 820.8 710 Q 820.8 720 820.8 730 L 820.8 762" fill="none" stroke="#B4B6B2" stroke-width="1" marker-end="url(#arr)"/><path d="M 673.8 809.46 L 224.38 862.82 Q 214.45 864 209.46 872.67 L 190.27 906" fill="none" stroke="#B4B6B2" stroke-width="1" marker-end="url(#arr)"/><path d="M 836.13 822 L 853.05 855.1 Q 857.6 864 857.6 874 L 857.6 926 Q 857.6 936 857.6 946 L 857.6 998 Q 857.6 1008 863.2 1016.29 L 885.98 1050" fill="none" stroke="#B4B6B2" stroke-width="1" marker-end="url(#arr)"/><path d="M 958.43 822 L 1141.33 861.87 Q 1151.1 864 1152.71 873.87 L 1157.95 906" fill="none" stroke="#B4B6B2" stroke-width="1" marker-end="url(#arr)"/><path d="M 762.03 822 L 688.66 859.45 Q 679.75 864 670.46 867.7 L 574.25 906" fill="none" stroke="#B4B6B2" stroke-width="1" marker-end="url(#arr)"/><path d="M 316.99 534 L 141.3 573.79 Q 131.55 576 131.55 586 L 131.55 638 Q 131.55 648 131.55 658 L 131.55 710 Q 131.55 720 131.55 730 L 131.55 782 Q 131.55 792 131.55 802 L 131.55 854 Q 131.55 864 136.54 872.67 L 155.73 906" fill="none" stroke="#B4B6B2" stroke-width="1" marker-end="url(#arr)"/><path d="M 400.26 534 L 339.94 570.79 Q 331.4 576 331.4 586 L 331.4 638 Q 331.4 648 331.4 658 L 331.4 710 Q 331.4 720 331.4 730 L 331.4 782 Q 331.4 792 331.4 802 L 331.4 854 Q 331.4 864 331.4 874 L 331.4 926 Q 331.4 936 331.4 946 L 331.4 998 Q 331.4 1008 341.32 1009.24 L 686.25 1052.44" fill="none" stroke="#B4B6B2" stroke-width="1" marker-end="url(#arr)"/><path d="M 609.45 522.43 L 1064.47 574.86 Q 1074.4 576 1074.4 586 L 1074.4 638 Q 1074.4 648 1074.4 658 L 1074.4 710 Q 1074.4 720 1074.4 730 L 1074.4 782 Q 1074.4 792 1074.4 802 L 1074.4 854 Q 1074.4 864 1082.16 870.31 L 1126 906" fill="none" stroke="#B4B6B2" stroke-width="1" marker-end="url(#arr)"/><path d="M 451.14 534 L 452.94 566.02 Q 453.5 576 453.5 586 L 453.5 638 Q 453.5 648 453.5 658 L 453.5 710 Q 453.5 720 453.5 730 L 453.5 782 Q 453.5 792 453.5 802 L 453.5 854 Q 453.5 864 458.83 872.46 L 479.98 906" fill="none" stroke="#B4B6B2" stroke-width="1" marker-end="url(#arr)"/></g>
<g><circle cx="867.65" cy="114" r="2.4" fill="#A84B2F"/><g class="flow" opacity="0"><circle r="5" fill="#A84B2F" opacity="0.12"/><circle r="2.8" fill="#A84B2F"/><animateMotion dur="2.6s" begin="0s" repeatCount="indefinite" rotate="0" path="M 867.65 102 L 867.65 134 Q 867.65 144 867.65 154 L 867.65 186"/><animate attributeName="opacity" dur="2.6s" begin="0s" repeatCount="indefinite" values="0;1;1;0" keyTimes="0;0.12;0.86;1"/></g><circle cx="720.42" cy="246.68" r="2.4" fill="#A84B2F"/><g class="flow" opacity="0"><circle r="5" fill="#A84B2F" opacity="0.12"/><circle r="2.8" fill="#A84B2F"/><animateMotion dur="2.6s" begin="0.5s" repeatCount="indefinite" rotate="0" path="M 708.65 244.35 L 919.74 286.06 Q 929.55 288 921.24 293.56 L 866.7 330"/><animate attributeName="opacity" dur="2.6s" begin="0.5s" repeatCount="indefinite" values="0;1;1;0" keyTimes="0;0.12;0.86;1"/></g><circle cx="525.48" cy="254.34" r="2.4" fill="#A84B2F"/><g class="flow" opacity="0"><circle r="5" fill="#A84B2F" opacity="0.12"/><circle r="2.8" fill="#A84B2F"/><animateMotion dur="2.6s" begin="1s" repeatCount="indefinite" rotate="0" path="M 534.11 246 L 497.84 281.05 Q 490.65 288 482.78 294.17 L 437.07 330"/><animate attributeName="opacity" dur="2.6s" begin="1s" repeatCount="indefinite" values="0;1;1;0" keyTimes="0;0.12;0.86;1"/></g><circle cx="1006.44" cy="242.05" r="2.4" fill="#A84B2F"/><g class="flow" opacity="0"><circle r="5" fill="#A84B2F" opacity="0.12"/><circle r="2.8" fill="#A84B2F"/><animateMotion dur="4.2s" begin="1.5s" repeatCount="indefinite" rotate="0" path="M 994.65 239.83 L 1241.47 286.16 Q 1251.3 288 1251.3 298 L 1251.3 350 Q 1251.3 360 1251.3 370 L 1251.3 422 Q 1251.3 432 1251.3 442 L 1251.3 494 Q 1251.3 504 1251.3 514 L 1251.3 566 Q 1251.3 576 1251.3 586 L 1251.3 638 Q 1251.3 648 1251.3 658 L 1251.3 710 Q 1251.3 720 1251.3 730 L 1251.3 762"/><animate attributeName="opacity" dur="4.2s" begin="1.5s" repeatCount="indefinite" values="0;1;1;0" keyTimes="0;0.12;0.86;1"/></g><circle cx="958.36" cy="250.24" r="2.4" fill="#A84B2F"/><g class="flow" opacity="0"><circle r="5" fill="#A84B2F" opacity="0.12"/><circle r="2.8" fill="#A84B2F"/><animateMotion dur="4.2s" begin="2s" repeatCount="indefinite" rotate="0" path="M 947.13 246 L 1049.04 284.47 Q 1058.4 288 1058.4 298 L 1058.4 350 Q 1058.4 360 1058.4 370 L 1058.4 422 Q 1058.4 432 1058.4 442 L 1058.4 494 Q 1058.4 504 1058.4 514 L 1058.4 566 Q 1058.4 576 1048.83 578.9 L 919.8 618"/><animate attributeName="opacity" dur="4.2s" begin="2s" repeatCount="indefinite" values="0;1;1;0" keyTimes="0;0.12;0.86;1"/></g><circle cx="780.59" cy="250.41" r="2.4" fill="#A84B2F"/><g class="flow" opacity="0"><circle r="5" fill="#A84B2F" opacity="0.12"/><circle r="2.8" fill="#A84B2F"/><animateMotion dur="2.6s" begin="2.5s" repeatCount="indefinite" rotate="0" path="M 791.75 246 L 694.8 284.32 Q 685.5 288 694.34 292.67 L 765.01 330"/><animate attributeName="opacity" dur="2.6s" begin="2.5s" repeatCount="indefinite" values="0;1;1;0" keyTimes="0;0.12;0.86;1"/></g><circle cx="728.75" cy="234.34" r="2.4" fill="#A84B2F"/><g class="flow" opacity="0"><circle r="5" fill="#A84B2F" opacity="0.12"/><circle r="2.8" fill="#A84B2F"/><animateMotion dur="3.72s" begin="0s" repeatCount="indefinite" rotate="0" path="M 740.65 232.77 L 332.26 286.69 Q 322.35 288 329.63 294.86 L 366.95 330"/><animate attributeName="opacity" dur="3.72s" begin="0s" repeatCount="indefinite" values="0;1;1;0" keyTimes="0;0.12;0.86;1"/></g><circle cx="759.8" cy="396.03" r="2.4" fill="#A84B2F"/><g class="flow" opacity="0"><circle r="5" fill="#A84B2F" opacity="0.12"/><circle r="2.8" fill="#A84B2F"/><animateMotion dur="2.6s" begin="0.5s" repeatCount="indefinite" rotate="0" path="M 770.18 390 L 706.55 426.98 Q 697.9 432 688.3 434.78 L 552.97 474"/><animate attributeName="opacity" dur="2.6s" begin="0.5s" repeatCount="indefinite" values="0;1;1;0" keyTimes="0;0.12;0.86;1"/></g><circle cx="848.28" cy="400.01" r="2.4" fill="#A84B2F"/><g class="flow" opacity="0"><circle r="5" fill="#A84B2F" opacity="0.12"/><circle r="2.8" fill="#A84B2F"/><animateMotion dur="2.6s" begin="1s" repeatCount="indefinite" rotate="0" path="M 841.65 390 L 863.93 423.66 Q 869.45 432 869.45 442 L 869.45 494 Q 869.45 504 869.45 514 L 869.45 566 Q 869.45 576 863.85 584.29 L 841.07 618"/><animate attributeName="opacity" dur="2.6s" begin="1s" repeatCount="indefinite" values="0;1;1;0" keyTimes="0;0.12;0.86;1"/></g><circle cx="398.8" cy="402" r="2.4" fill="#A84B2F"/><g class="flow" opacity="0"><circle r="5" fill="#A84B2F" opacity="0.12"/><circle r="2.8" fill="#A84B2F"/><animateMotion dur="2.6s" begin="1.5s" repeatCount="indefinite" rotate="0" path="M 398.8 390 L 398.8 422 Q 398.8 432 404.55 440.18 L 428.35 474"/><animate attributeName="opacity" dur="2.6s" begin="1.5s" repeatCount="indefinite" values="0;1;1;0" keyTimes="0;0.12;0.86;1"/></g><circle cx="558.61" cy="537.52" r="2.4" fill="#A84B2F"/><g class="flow" opacity="0"><circle r="5" fill="#A84B2F" opacity="0.12"/><circle r="2.8" fill="#A84B2F"/><animateMotion dur="2.6s" begin="2s" repeatCount="indefinite" rotate="0" path="M 547.14 534 L 674.34 573.06 Q 683.9 576 692.75 580.65 L 763.76 618"/><animate attributeName="opacity" dur="2.6s" begin="2s" repeatCount="indefinite" values="0;1;1;0" keyTimes="0;0.12;0.86;1"/></g><circle cx="1251.3" cy="834" r="2.4" fill="#A84B2F"/><g class="flow" opacity="0"><circle r="5" fill="#A84B2F" opacity="0.12"/><circle r="2.8" fill="#A84B2F"/><animateMotion dur="2.6s" begin="2.5s" repeatCount="indefinite" rotate="0" path="M 1251.3 822 L 1251.3 854 Q 1251.3 864 1243.54 870.31 L 1199.7 906"/><animate attributeName="opacity" dur="2.6s" begin="2.5s" repeatCount="indefinite" values="0;1;1;0" keyTimes="0;0.12;0.86;1"/></g><circle cx="1162.85" cy="978" r="2.4" fill="#A84B2F"/><g class="flow" opacity="0"><circle r="5" fill="#A84B2F" opacity="0.12"/><circle r="2.8" fill="#A84B2F"/><animateMotion dur="2.6s" begin="0s" repeatCount="indefinite" rotate="0" path="M 1162.85 966 L 1162.85 998 Q 1162.85 1008 1153.22 1010.7 L 1013.17 1050"/><animate attributeName="opacity" dur="2.6s" begin="0s" repeatCount="indefinite" values="0;1;1;0" keyTimes="0;0.12;0.86;1"/></g><circle cx="906.25" cy="1122" r="2.4" fill="#A84B2F"/><g class="flow" opacity="0"><circle r="5" fill="#A84B2F" opacity="0.12"/><circle r="2.8" fill="#A84B2F"/><animateMotion dur="2.6s" begin="0.5s" repeatCount="indefinite" rotate="0" path="M 906.25 1110 L 906.25 1142 Q 906.25 1152 906.25 1162 L 906.25 1194"/><animate attributeName="opacity" dur="2.6s" begin="0.5s" repeatCount="indefinite" values="0;1;1;0" keyTimes="0;0.12;0.86;1"/></g><circle cx="820.8" cy="690" r="2.4" fill="#A84B2F"/><g class="flow" opacity="0"><circle r="5" fill="#A84B2F" opacity="0.12"/><circle r="2.8" fill="#A84B2F"/><animateMotion dur="2.6s" begin="1s" repeatCount="indefinite" rotate="0" path="M 820.8 678 L 820.8 710 Q 820.8 720 820.8 730 L 820.8 762"/><animate attributeName="opacity" dur="2.6s" begin="1s" repeatCount="indefinite" values="0;1;1;0" keyTimes="0;0.12;0.86;1"/></g><circle cx="661.88" cy="810.87" r="2.4" fill="#A84B2F"/><g class="flow" opacity="0"><circle r="5" fill="#A84B2F" opacity="0.12"/><circle r="2.8" fill="#A84B2F"/><animateMotion dur="3.93s" begin="1.5s" repeatCount="indefinite" rotate="0" path="M 673.8 809.46 L 224.38 862.82 Q 214.45 864 209.46 872.67 L 190.27 906"/><animate attributeName="opacity" dur="3.93s" begin="1.5s" repeatCount="indefinite" values="0;1;1;0" keyTimes="0;0.12;0.86;1"/></g><circle cx="841.59" cy="832.69" r="2.4" fill="#A84B2F"/><g class="flow" opacity="0"><circle r="5" fill="#A84B2F" opacity="0.12"/><circle r="2.8" fill="#A84B2F"/><animateMotion dur="2.6s" begin="2s" repeatCount="indefinite" rotate="0" path="M 836.13 822 L 853.05 855.1 Q 857.6 864 857.6 874 L 857.6 926 Q 857.6 936 857.6 946 L 857.6 998 Q 857.6 1008 863.2 1016.29 L 885.98 1050"/><animate attributeName="opacity" dur="2.6s" begin="2s" repeatCount="indefinite" values="0;1;1;0" keyTimes="0;0.12;0.86;1"/></g><circle cx="970.15" cy="824.56" r="2.4" fill="#A84B2F"/><g class="flow" opacity="0"><circle r="5" fill="#A84B2F" opacity="0.12"/><circle r="2.8" fill="#A84B2F"/><animateMotion dur="2.6s" begin="2.5s" repeatCount="indefinite" rotate="0" path="M 958.43 822 L 1141.33 861.87 Q 1151.1 864 1152.71 873.87 L 1157.95 906"/><animate attributeName="opacity" dur="2.6s" begin="2.5s" repeatCount="indefinite" values="0;1;1;0" keyTimes="0;0.12;0.86;1"/></g><circle cx="751.34" cy="827.46" r="2.4" fill="#A84B2F"/><g class="flow" opacity="0"><circle r="5" fill="#A84B2F" opacity="0.12"/><circle r="2.8" fill="#A84B2F"/><animateMotion dur="2.6s" begin="0s" repeatCount="indefinite" rotate="0" path="M 762.03 822 L 688.66 859.45 Q 679.75 864 670.46 867.7 L 574.25 906"/><animate attributeName="opacity" dur="2.6s" begin="0s" repeatCount="indefinite" values="0;1;1;0" keyTimes="0;0.12;0.86;1"/></g><circle cx="305.29" cy="536.65" r="2.4" fill="#A84B2F"/><g class="flow" opacity="0"><circle r="5" fill="#A84B2F" opacity="0.12"/><circle r="2.8" fill="#A84B2F"/><animateMotion dur="4.05s" begin="0.5s" repeatCount="indefinite" rotate="0" path="M 316.99 534 L 141.3 573.79 Q 131.55 576 131.55 586 L 131.55 638 Q 131.55 648 131.55 658 L 131.55 710 Q 131.55 720 131.55 730 L 131.55 782 Q 131.55 792 131.55 802 L 131.55 854 Q 131.55 864 136.54 872.67 L 155.73 906"/><animate attributeName="opacity" dur="4.05s" begin="0.5s" repeatCount="indefinite" values="0;1;1;0" keyTimes="0;0.12;0.86;1"/></g><circle cx="390.02" cy="540.25" r="2.4" fill="#A84B2F"/><g class="flow" opacity="0"><circle r="5" fill="#A84B2F" opacity="0.12"/><circle r="2.8" fill="#A84B2F"/><animateMotion dur="4.2s" begin="1s" repeatCount="indefinite" rotate="0" path="M 400.26 534 L 339.94 570.79 Q 331.4 576 331.4 586 L 331.4 638 Q 331.4 648 331.4 658 L 331.4 710 Q 331.4 720 331.4 730 L 331.4 782 Q 331.4 792 331.4 802 L 331.4 854 Q 331.4 864 331.4 874 L 331.4 926 Q 331.4 936 331.4 946 L 331.4 998 Q 331.4 1008 341.32 1009.24 L 686.25 1052.44"/><animate attributeName="opacity" dur="4.2s" begin="1s" repeatCount="indefinite" values="0;1;1;0" keyTimes="0;0.12;0.86;1"/></g><circle cx="621.37" cy="523.81" r="2.4" fill="#A84B2F"/><g class="flow" opacity="0"><circle r="5" fill="#A84B2F" opacity="0.12"/><circle r="2.8" fill="#A84B2F"/><animateMotion dur="4.2s" begin="1.5s" repeatCount="indefinite" rotate="0" path="M 609.45 522.43 L 1064.47 574.86 Q 1074.4 576 1074.4 586 L 1074.4 638 Q 1074.4 648 1074.4 658 L 1074.4 710 Q 1074.4 720 1074.4 730 L 1074.4 782 Q 1074.4 792 1074.4 802 L 1074.4 854 Q 1074.4 864 1082.16 870.31 L 1126 906"/><animate attributeName="opacity" dur="4.2s" begin="1.5s" repeatCount="indefinite" values="0;1;1;0" keyTimes="0;0.12;0.86;1"/></g><circle cx="451.81" cy="545.98" r="2.4" fill="#A84B2F"/><g class="flow" opacity="0"><circle r="5" fill="#A84B2F" opacity="0.12"/><circle r="2.8" fill="#A84B2F"/><animateMotion dur="2.92s" begin="2s" repeatCount="indefinite" rotate="0" path="M 451.14 534 L 452.94 566.02 Q 453.5 576 453.5 586 L 453.5 638 Q 453.5 648 453.5 658 L 453.5 710 Q 453.5 720 453.5 730 L 453.5 782 Q 453.5 792 453.5 802 L 453.5 854 Q 453.5 864 458.83 872.46 L 479.98 906"/><animate attributeName="opacity" dur="2.92s" begin="2s" repeatCount="indefinite" values="0;1;1;0" keyTimes="0;0.12;0.86;1"/></g></g>
<g><g transform="translate(867.65 144)"><rect x="-82.4" y="-10" width="164.8" height="20" rx="4" fill="#F8F8F1"/><text x="0" y="3.6" text-anchor="middle" font-family="'SF Mono', 'JetBrains Mono', 'Menlo', 'DejaVu Sans Mono', 'Consolas', monospace" font-size="10.5" letter-spacing="0.2" fill="#5f6463">all interactive requests</text></g><g transform="translate(929.55 288)"><rect x="-60.7" y="-10" width="121.4" height="20" rx="4" fill="#F8F8F1"/><text x="0" y="3.6" text-anchor="middle" font-family="'SF Mono', 'JetBrains Mono', 'Menlo', 'DejaVu Sans Mono', 'Consolas', monospace" font-size="10.5" letter-spacing="0.2" fill="#5f6463">daily queue drain</text></g><g transform="translate(490.65 288)"><rect x="-63.8" y="-10" width="127.6" height="20" rx="4" fill="#F8F8F1"/><text x="0" y="3.6" text-anchor="middle" font-family="'SF Mono', 'JetBrains Mono', 'Menlo', 'DejaVu Sans Mono', 'Consolas', monospace" font-size="10.5" letter-spacing="0.2" fill="#5f6463">weekly health pass</text></g><g transform="translate(1251.3 504)"><rect x="-51.4" y="-10" width="102.8" height="20" rx="4" fill="#F8F8F1"/><text x="0" y="3.6" text-anchor="middle" font-family="'SF Mono', 'JetBrains Mono', 'Menlo', 'DejaVu Sans Mono', 'Consolas', monospace" font-size="10.5" letter-spacing="0.2" fill="#5f6463">answer request</text></g><g transform="translate(1058.4 432)"><rect x="-88.6" y="-10" width="177.2" height="20" rx="4" fill="#F8F8F1"/><text x="0" y="3.6" text-anchor="middle" font-family="'SF Mono', 'JetBrains Mono', 'Menlo', 'DejaVu Sans Mono', 'Consolas', monospace" font-size="10.5" letter-spacing="0.2" fill="#5f6463">single write or correction</text></g><g transform="translate(685.5 288)"><rect x="-73.1" y="-10" width="146.2" height="20" rx="4" fill="#F8F8F1"/><text x="0" y="3.6" text-anchor="middle" font-family="'SF Mono', 'JetBrains Mono', 'Menlo', 'DejaVu Sans Mono', 'Consolas', monospace" font-size="10.5" letter-spacing="0.2" fill="#5f6463">delegate batch intake</text></g><g transform="translate(322.35 288)"><rect x="-73.1" y="-10" width="146.2" height="20" rx="4" fill="#F8F8F1"/><text x="0" y="3.6" text-anchor="middle" font-family="'SF Mono', 'JetBrains Mono', 'Menlo', 'DejaVu Sans Mono', 'Consolas', monospace" font-size="10.5" letter-spacing="0.2" fill="#5f6463">delegate health audit</text></g><g transform="translate(697.9 432)"><rect x="-79.3" y="-10" width="158.6" height="20" rx="4" fill="#F8F8F1"/><text x="0" y="3.6" text-anchor="middle" font-family="'SF Mono', 'JetBrains Mono', 'Menlo', 'DejaVu Sans Mono', 'Consolas', monospace" font-size="10.5" letter-spacing="0.2" fill="#5f6463">discover + verify queue</text></g><g transform="translate(869.45 504)"><rect x="-63.8" y="-10" width="127.6" height="20" rx="4" fill="#F8F8F1"/><text x="0" y="3.6" text-anchor="middle" font-family="'SF Mono', 'JetBrains Mono', 'Menlo', 'DejaVu Sans Mono', 'Consolas', monospace" font-size="10.5" letter-spacing="0.2" fill="#5f6463">ingest each source</text></g><g transform="translate(398.8 432)"><rect x="-82.4" y="-10" width="164.8" height="20" rx="4" fill="#F8F8F1"/><text x="0" y="3.6" text-anchor="middle" font-family="'SF Mono', 'JetBrains Mono', 'Menlo', 'DejaVu Sans Mono', 'Consolas', monospace" font-size="10.5" letter-spacing="0.2" fill="#5f6463">run full health protocol</text></g><g transform="translate(683.9 576)"><rect x="-42.1" y="-10" width="84.2" height="20" rx="4" fill="#F8F8F1"/><text x="0" y="3.6" text-anchor="middle" font-family="'SF Mono', 'JetBrains Mono', 'Menlo', 'DejaVu Sans Mono', 'Consolas', monospace" font-size="10.5" letter-spacing="0.2" fill="#5f6463">safe repair</text></g><g transform="translate(1251.3 864)"><rect x="-23.5" y="-10" width="47" height="20" rx="4" fill="#F8F8F1"/><text x="0" y="3.6" text-anchor="middle" font-family="'SF Mono', 'JetBrains Mono', 'Menlo', 'DejaVu Sans Mono', 'Consolas', monospace" font-size="10.5" letter-spacing="0.2" fill="#5f6463">route</text></g><g transform="translate(1162.85 1008)"><rect x="-45.2" y="-10" width="90.4" height="20" rx="4" fill="#F8F8F1"/><text x="0" y="3.6" text-anchor="middle" font-family="'SF Mono', 'JetBrains Mono', 'Menlo', 'DejaVu Sans Mono', 'Consolas', monospace" font-size="10.5" letter-spacing="0.2" fill="#5f6463">select pages</text></g><g transform="translate(906.25 1152)"><rect x="-63.8" y="-10" width="127.6" height="20" rx="4" fill="#F8F8F1"/><text x="0" y="3.6" text-anchor="middle" font-family="'SF Mono', 'JetBrains Mono', 'Menlo', 'DejaVu Sans Mono', 'Consolas', monospace" font-size="10.5" letter-spacing="0.2" fill="#5f6463">facts + provenance</text></g><g transform="translate(820.8 720)"><rect x="-48.3" y="-10" width="96.6" height="20" rx="4" fill="#F8F8F1"/><text x="0" y="3.6" text-anchor="middle" font-family="'SF Mono', 'JetBrains Mono', 'Menlo', 'DejaVu Sans Mono', 'Consolas', monospace" font-size="10.5" letter-spacing="0.2" fill="#5f6463">checked write</text></g><g transform="translate(214.45 864)"><rect x="-66.9" y="-10" width="133.8" height="20" rx="4" fill="#F8F8F1"/><text x="0" y="3.6" text-anchor="middle" font-family="'SF Mono', 'JetBrains Mono', 'Menlo', 'DejaVu Sans Mono', 'Consolas', monospace" font-size="10.5" letter-spacing="0.2" fill="#5f6463">append raw evidence</text></g><g transform="translate(857.6 936)"><rect x="-88.6" y="-10" width="177.2" height="20" rx="4" fill="#F8F8F1"/><text x="0" y="3.6" text-anchor="middle" font-family="'SF Mono', 'JetBrains Mono', 'Menlo', 'DejaVu Sans Mono', 'Consolas', monospace" font-size="10.5" letter-spacing="0.2" fill="#5f6463">create or update synthesis</text></g><g transform="translate(1151.1 864)"><rect x="-60.7" y="-10" width="121.4" height="20" rx="4" fill="#F8F8F1"/><text x="0" y="3.6" text-anchor="middle" font-family="'SF Mono', 'JetBrains Mono', 'Menlo', 'DejaVu Sans Mono', 'Consolas', monospace" font-size="10.5" letter-spacing="0.2" fill="#5f6463">recompile routing</text></g><g transform="translate(679.75 864)"><rect x="-57.6" y="-10" width="115.2" height="20" rx="4" fill="#F8F8F1"/><text x="0" y="3.6" text-anchor="middle" font-family="'SF Mono', 'JetBrains Mono', 'Menlo', 'DejaVu Sans Mono', 'Consolas', monospace" font-size="10.5" letter-spacing="0.2" fill="#5f6463">append operation</text></g><g transform="translate(131.55 720)"><rect x="-54.5" y="-10" width="109" height="20" rx="4" fill="#F8F8F1"/><text x="0" y="3.6" text-anchor="middle" font-family="'SF Mono', 'JetBrains Mono', 'Menlo', 'DejaVu Sans Mono', 'Consolas', monospace" font-size="10.5" letter-spacing="0.2" fill="#5f6463">inspect sources</text></g><g transform="translate(331.4 792)"><rect x="-48.3" y="-10" width="96.6" height="20" rx="4" fill="#F8F8F1"/><text x="0" y="3.6" text-anchor="middle" font-family="'SF Mono', 'JetBrains Mono', 'Menlo', 'DejaVu Sans Mono', 'Consolas', monospace" font-size="10.5" letter-spacing="0.2" fill="#5f6463">inspect pages</text></g><g transform="translate(1074.4 720)"><rect x="-42.1" y="-10" width="84.2" height="20" rx="4" fill="#F8F8F1"/><text x="0" y="3.6" text-anchor="middle" font-family="'SF Mono', 'JetBrains Mono', 'Menlo', 'DejaVu Sans Mono', 'Consolas', monospace" font-size="10.5" letter-spacing="0.2" fill="#5f6463">check index</text></g><g transform="translate(453.5 720)"><rect x="-60.7" y="-10" width="121.4" height="20" rx="4" fill="#F8F8F1"/><text x="0" y="3.6" text-anchor="middle" font-family="'SF Mono', 'JetBrains Mono', 'Menlo', 'DejaVu Sans Mono', 'Consolas', monospace" font-size="10.5" letter-spacing="0.2" fill="#5f6463">check audit trail</text></g></g>
<g><rect x="740.65" y="42" width="254" height="60" rx="9" fill="#F8F8F1" stroke="#A84B2F" stroke-width="1"/><text x="867.65" y="69" text-anchor="middle" font-family="'SF Mono', 'JetBrains Mono', 'Menlo', 'DejaVu Sans Mono', 'Consolas', monospace" font-size="14" font-weight="600" fill="#A84B2F">human</text><text x="867.65" y="86" text-anchor="middle" font-family="'SF Mono', 'JetBrains Mono', 'Menlo', 'DejaVu Sans Mono', 'Consolas', monospace" font-size="11" fill="#6e7372">TRIGGER · all interactive KB work</text><rect x="421.65" y="186" width="287" height="60" rx="9" fill="#F8F8F1" stroke="#A84B2F" stroke-width="1"/><text x="565.15" y="213" text-anchor="middle" font-family="'SF Mono', 'JetBrains Mono', 'Menlo', 'DejaVu Sans Mono', 'Consolas', monospace" font-size="14" font-weight="600" fill="#A84B2F">scheduler</text><text x="565.15" y="230" text-anchor="middle" font-family="'SF Mono', 'JetBrains Mono', 'Menlo', 'DejaVu Sans Mono', 'Consolas', monospace" font-size="11" fill="#6e7372">TRIGGER · daily intake · weekly health</text><rect x="740.65" y="186" width="254" height="60" rx="9" fill="#242B2D" stroke="#242B2D" stroke-width="1"/><text x="867.65" y="213" text-anchor="middle" font-family="'SF Mono', 'JetBrains Mono', 'Menlo', 'DejaVu Sans Mono', 'Consolas', monospace" font-size="14" font-weight="600" fill="#F8F8F1">kmd-operator</text><text x="867.65" y="230" text-anchor="middle" font-family="'SF Mono', 'JetBrains Mono', 'Menlo', 'DejaVu Sans Mono', 'Consolas', monospace" font-size="11" fill="#D2D3CE">AGENT · sole human-facing gateway</text><rect x="664.8" y="330" width="314" height="60" rx="9" fill="#242B2D" stroke="#242B2D" stroke-width="1"/><text x="821.8" y="357" text-anchor="middle" font-family="'SF Mono', 'JetBrains Mono', 'Menlo', 'DejaVu Sans Mono', 'Consolas', monospace" font-size="14" font-weight="600" fill="#F8F8F1">kmd-intake</text><text x="821.8" y="374" text-anchor="middle" font-family="'SF Mono', 'JetBrains Mono', 'Menlo', 'DejaVu Sans Mono', 'Consolas', monospace" font-size="11" fill="#D2D3CE">AGENT · delegated / scheduled queue worker</text><rect x="238.8" y="330" width="320" height="60" rx="9" fill="#242B2D" stroke="#242B2D" stroke-width="1"/><text x="398.8" y="357" text-anchor="middle" font-family="'SF Mono', 'JetBrains Mono', 'Menlo', 'DejaVu Sans Mono', 'Consolas', monospace" font-size="14" font-weight="600" fill="#F8F8F1">kmd-librarian</text><text x="398.8" y="374" text-anchor="middle" font-family="'SF Mono', 'JetBrains Mono', 'Menlo', 'DejaVu Sans Mono', 'Consolas', monospace" font-size="11" fill="#D2D3CE">AGENT · delegated / scheduled health worker</text><rect x="1117.8" y="762" width="267" height="60" rx="9" fill="#F8F8F1" stroke="#242B2D" stroke-width="1"/><text x="1251.3" y="789" text-anchor="middle" font-family="'SF Mono', 'JetBrains Mono', 'Menlo', 'DejaVu Sans Mono', 'Consolas', monospace" font-size="14" font-weight="600" fill="#242B2D">query</text><text x="1251.3" y="806" text-anchor="middle" font-family="'SF Mono', 'JetBrains Mono', 'Menlo', 'DejaVu Sans Mono', 'Consolas', monospace" font-size="11" fill="#6e7372">PROCESS · route · read · synthesize</text><rect x="687.3" y="618" width="267" height="60" rx="9" fill="#E8EEE9" stroke="#557064" stroke-width="1"/><text x="820.8" y="645" text-anchor="middle" font-family="'SF Mono', 'JetBrains Mono', 'Menlo', 'DejaVu Sans Mono', 'Consolas', monospace" font-size="14" font-weight="600" fill="#345448">kmd-ingest</text><text x="820.8" y="662" text-anchor="middle" font-family="'SF Mono', 'JetBrains Mono', 'Menlo', 'DejaVu Sans Mono', 'Consolas', monospace" font-size="11" fill="#60736B">SKILL · protocol for every KB write</text><rect x="289.45" y="474" width="320" height="60" rx="9" fill="#E8EEE9" stroke="#557064" stroke-width="1"/><text x="449.45" y="501" text-anchor="middle" font-family="'SF Mono', 'JetBrains Mono', 'Menlo', 'DejaVu Sans Mono', 'Consolas', monospace" font-size="14" font-weight="600" fill="#345448">kmd-lint</text><text x="449.45" y="518" text-anchor="middle" font-family="'SF Mono', 'JetBrains Mono', 'Menlo', 'DejaVu Sans Mono', 'Consolas', monospace" font-size="11" fill="#60736B">SKILL · mechanical + judgment health checks</text><rect x="673.8" y="762" width="294" height="60" rx="9" fill="#F8F8F1" stroke="#242B2D" stroke-width="1" stroke-dasharray="3.5 3"/><text x="820.8" y="789" text-anchor="middle" font-family="'SF Mono', 'JetBrains Mono', 'Menlo', 'DejaVu Sans Mono', 'Consolas', monospace" font-size="14" font-weight="600" fill="#242B2D">guard + validation</text><text x="820.8" y="806" text-anchor="middle" font-family="'SF Mono', 'JetBrains Mono', 'Menlo', 'DejaVu Sans Mono', 'Consolas', monospace" font-size="11" fill="#6e7372">SAFEGUARD · protected writes · feedback</text><rect x="46" y="906" width="254" height="60" rx="9" fill="#F1F2ED" stroke="#9a9e9b" stroke-width="1"/><text x="173" y="933" text-anchor="middle" font-family="'SF Mono', 'JetBrains Mono', 'Menlo', 'DejaVu Sans Mono', 'Consolas', monospace" font-size="14" font-weight="600" fill="#242B2D">sources/</text><text x="173" y="950" text-anchor="middle" font-family="'SF Mono', 'JetBrains Mono', 'Menlo', 'DejaVu Sans Mono', 'Consolas', monospace" font-size="11" fill="#6e7372">ENTITY · append-only raw evidence</text><rect x="686.25" y="1050" width="440" height="60" rx="9" fill="#F1F2ED" stroke="#9a9e9b" stroke-width="1"/><text x="906.25" y="1077" text-anchor="middle" font-family="'SF Mono', 'JetBrains Mono', 'Menlo', 'DejaVu Sans Mono', 'Consolas', monospace" font-size="14" font-weight="600" fill="#242B2D">living knowledge graph</text><text x="906.25" y="1094" text-anchor="middle" font-family="'SF Mono', 'JetBrains Mono', 'Menlo', 'DejaVu Sans Mono', 'Consolas', monospace" font-size="11" fill="#6e7372">ENTITY · entities · concepts · projects · decisions · reports</text><rect x="1012.85" y="906" width="300" height="60" rx="9" fill="#F1F2ED" stroke="#9a9e9b" stroke-width="1"/><text x="1162.85" y="933" text-anchor="middle" font-family="'SF Mono', 'JetBrains Mono', 'Menlo', 'DejaVu Sans Mono', 'Consolas', monospace" font-size="14" font-weight="600" fill="#242B2D">INDEX.md + qmd</text><text x="1162.85" y="950" text-anchor="middle" font-family="'SF Mono', 'JetBrains Mono', 'Menlo', 'DejaVu Sans Mono', 'Consolas', monospace" font-size="11" fill="#6e7372">ENTITY · routing index + optional search</text><rect x="355.4" y="906" width="287" height="60" rx="9" fill="#F1F2ED" stroke="#9a9e9b" stroke-width="1"/><text x="498.9" y="933" text-anchor="middle" font-family="'SF Mono', 'JetBrains Mono', 'Menlo', 'DejaVu Sans Mono', 'Consolas', monospace" font-size="14" font-weight="600" fill="#242B2D">LOG.md</text><text x="498.9" y="950" text-anchor="middle" font-family="'SF Mono', 'JetBrains Mono', 'Menlo', 'DejaVu Sans Mono', 'Consolas', monospace" font-size="11" fill="#6e7372">ENTITY · append-only operation journal</text><rect x="756.25" y="1194" width="300" height="60" rx="9" fill="#A84B2F" stroke="#A84B2F" stroke-width="1"/><text x="906.25" y="1221" text-anchor="middle" font-family="'SF Mono', 'JetBrains Mono', 'Menlo', 'DejaVu Sans Mono', 'Consolas', monospace" font-size="14" font-weight="600" fill="#F8F8F1">cited answer</text><text x="906.25" y="1238" text-anchor="middle" font-family="'SF Mono', 'JetBrains Mono', 'Menlo', 'DejaVu Sans Mono', 'Consolas', monospace" font-size="11" fill="#D2D3CE">OUTPUT · facts · confidence · provenance</text></g>
</svg>